<?xml version="1.0" encoding="UTF-8"?>
<svg version="1.1" viewBox="0 0 2000 2000" width="1280" height="1280" xmlns="http://www.w3.org/2000/svg">
<path transform="translate(0)" d="m0 0h2e3v2e3h-2e3z"/>
<path transform="translate(771,799)" d="m0 0h112l4 4 12 17 11 13 9 11 13 15 9 11 9 10 9 11 12 14 11 13 12 14 9 11 13 15 9 11 9 10 9 11 11 13 12 14 9 11 13 15 11 13 18 21v-200l-2-19-4-20-7-16-8-11-9-5-10-3-2-4h96v4l-13 2-10 6-6 7-5 10-5 19-2 20v284l2 61-4-2-7-9-12-14-9-11-12-14-11-13-9-11-12-14-22-26-9-11-12-14-9-11-12-14-11-13-9-11-12-14-9-11-12-14-22-26-9-11-12-14-9-11-12-14-9-11-12-14-9-11-9-10-4-4 1 8v37l1 218 3 24 4 15 8 16 5 6 11 7 11 3-1 3h-92l-6-1 3-3 16-4 8-6 4-5 5-10 4-15 2-13 1-19v-276l-7-9-19-19-15-11-8-5z" fill="#FBFBFB"/>
<path transform="translate(1605,1043)" d="m0 0h1l2 32-2 9-6 7-3 1h-10l-6-4-5-8-5 3-9 9h-2l-2 4-5 4v-14l5-5 8-7 5-4 1-9v-1l-18 1-1 3-2-3-2-15h2l1 2h20l25-2z" fill="#FBFBFB"/>
<path transform="translate(944,1515)" d="m0 0 9 1 19 4 10 4 5 5 2 3v9l-6 8-5 3-5 1 1 6 7 14 4 4-1 3-10-2-4-2-9-22-3-2-7-1-2 11v10l-7-1-8-1 3-9 8-38v-6z" fill="#FBFBFB"/>
<path transform="translate(481,1091)" d="m0 0h2l9 23 3 12-1 6-5 7-7 3-10-2-8-6-8 12-6 13-2-1-3-9v-5l12-18 1-5-2-5-5 1-10 4-3 4h-2l-6-14 1-2 1 1 7-1 36-14z" fill="#FBFBFB"/>
<path transform="translate(1221,486)" d="m0 0 7 3 17 9 9 7 5 8-1 7-5 7-5 3-11 1-1 3 3 18 2 5-1 3-10-6-2-3-3-23-5-5-4 1-6 12-1 6-5-2-9-5 5-6 12-21 8-15z" fill="#FBFBFB"/>
<path transform="translate(1076,429)" d="m0 0h4l2 10 6 48 2 4-8-1-11-3v-2l4-2-1-9-26-7-3 1-3 5 1 5-4 1-5-1 3-5 9-10 12-16 12-15z" fill="#FBFBFB"/>
<path transform="translate(1138,1531)" d="m0 0h3l18 40 8 16-3 1-16-1 2-3-1-7-1-2h-29l-2 8 1 7h-8l2-5 12-31 7-17z" fill="#FBFBFB"/>
<path transform="translate(789,1455)" d="m0 0 5 1 19 9 11 10 4 8 1 8-3 10-4 6-4 5-10 5-11 1-13-4-19-10v-3l5-3 9-17 9-20zm11 8-19 38-2 3 1 5 10 5 3 1h8l10-9 5-11 2-9v-7l-3-7-5-6-5-3z" fill="#FBFBFB"/>
<path transform="translate(1562,869)" d="m0 0h2l7 20 2 7v14l-4 8-8 7-8 3-10 1-9-2-8-6-6-10-4-9-5-14 1-4 6 2 36-12 6-3zm2 13-38 13-7 3v7l5 10 4 4 4 1h8l13-4 9-6 6-7 1-3v-11l-2-7z" fill="#FBFBFB"/>
<path transform="translate(1280,1271)" d="m0 0 5 2 5 4 6 7 8 7 12 12v2l3 1 7 8 110 110 1 4-2 1-8-7-146-146z" fill="#FBFBFB"/>
<path transform="translate(511,496)" d="m0 0 4 1 153 153v3l-5-2-8-7-144-144z" fill="#FBFBFB"/>
<path transform="translate(1480,711)" d="m0 0 3 1 3 6 2 2-2 10-11 36 1 1 15-9 10-8 1-3 4 1 2 2-1 4-9 3-11 7-13 8-13 9h-2l3-12 13-43v-3l-16 10-15 10-2 5-5-2-1-4 10-4 26-17 5-3z" fill="#FBFBFB"/>
<path transform="translate(654,1357)" d="m0 0 5 3 6 5v47l1 2 7-7 9-11 6-10 4 1v4l-8 7-9 11-11 11-8 10-2 1v-62l-11 13-9 11-8 11-3 1-1-5 8-7 13-15 8-10 3-4z" fill="#FBFBFB"/>
<path transform="translate(400,752)" d="m0 0 4 1 1 2 25 3 17 3 8-5 1 4-2 9-7 6-11 7-23 15 14 3 15 1 7-2 1 3-2 5-3 1-2-3-3-1-17-2-10-2-20-2v-2l17-11 30-19 3-2-1-1-21-3h-21l-1-4z" fill="#FBFBFB"/>
<path transform="translate(554,1237)" d="m0 0 2 1 4 7 10 13 6 9 1 4-6 8-3 1 2-8v-7l-5-10-3-4-5 2-18 13-19 13 1 4 7 9 7 4 12 1-1 2-9 4-5-1-11-15-8-12-4-4v-3l9-2 20-14 12-9h2z" fill="#FBFBFB"/>
<path transform="translate(392,928)" d="m0 0 4 2 8 3 35 11 10 4 4 5-5 5-23 13-22 12-5 2-1-19 3 3 6-1 23-12 12-7-2-2-19-6-10-3v27h-1l-1-8-1-19-4-2h-7l-2 4-2-5z" fill="#FBFBFB"/>
<path transform="translate(1368,586)" d="m0 0 4 2 16 15 6 5 2 3-1 6-5 6h-2l1-5v-7l-4-8-8-7-5 4-7 8-14 15-7 7-1 4 7 7 8 4h8l7-1-5 5-5 4-5-1-18-18-10-8v-2l8-4 10-10 7-8 9-10z" fill="#FBFBFB"/>
<path transform="translate(1548,1211)" d="m0 0 3 1 5 5 10 7 16 10 14 10 2 9-9 3-45 9-7 2 4-18 2-1 1 4 10-1 3-24 2-2-1 18-1 8 13-3 18-4 2-1-10-7-18-11-10-6h-3l-3 3 1-9z" fill="#FBFBFB"/>
<path transform="translate(875,407)" d="m0 0 8 1 8 8 9 11 12 14 3 3v2h2l-1-32-4-5 6-2 3 3-1 2-1 33v18l-4-1-10-11-9-11-9-10-9-11-6-7-2-1v-3z" fill="#FBFBFB"/>
<path transform="translate(1595,1057)" d="m0 0h10v14l-3 7-6 4-4 1h-8l-6-4-3-6v-13l1-1z"/>
<path transform="translate(959,1519)" d="m0 0 12 3 6 5 2 4v9l-4 9-3 3-13-2-7-2 1-9 4-19z"/>
<path transform="translate(1232,495)" d="m0 0 6 1 8 6 3 6-1 9-6 9-2 2h-7l-8-4-6-5 2-5 10-18z"/>
<path transform="translate(481,1104)" d="m0 0h5l3 8v12l-5 6-6 3h-10l-4-2-5-14 1-5z"/>
<path transform="translate(1069,437)" d="m0 0 2 1 3 25v9l-21-5-5-2 4-7 12-15z"/>
<path transform="translate(1132,1541)" d="m0 0 4 3 11 27v2h-27l7-20z"/>
<path transform="translate(874,416)" d="m0 0 2 3 1 31 1 8 2 4-1 1h-7l1-4z" fill="#FBFBFB"/>
<path transform="translate(541,1266)" d="m0 0h2l5 8 5 3h4l-2 4-6 5h-3l1-5-2-7z" fill="#FBFBFB"/>
<path transform="translate(1361,616)" d="m0 0 4 2 7 5 6 1v3l-5 5-3 2-3-10-5-5z" fill="#FBFBFB"/>
</svg>
